<?xml version="1.0" encoding="UTF-8"?>
<svg id="Layer_2" data-name="Layer 2" xmlns="http://www.w3.org/2000/svg" viewBox="0 0 299.16 306.34">
  <defs>
    <style>
      .cls-1 {
        fill: #fff;
      }

      .cls-1, .cls-2 {
        stroke-width: 0px;
      }

      .cls-2 {
        fill: blue;
      }
    </style>
  </defs>
  <g id="Layer_1-2" data-name="Layer 1">
    <g>
      <rect class="cls-2" x="5.83" y="253.51" width="287.5" height="52.83" rx="26.41" ry="26.41"/>
      <path class="cls-2" d="m299.16,149.58c0,82.6-66.96,149.56-149.58,149.56S0,232.18,0,149.58c0-30.8,9.31-59.41,25.25-83.19,1.35-2.02,2.74-4,4.2-5.95C56.7,23.77,100.36,0,149.58,0c68.8,0,126.77,46.46,144.19,109.71.49,1.71.94,3.43,1.33,5.16,2.65,11.15,4.06,22.76,4.06,34.72Z"/>
      <path class="cls-1" d="m232.52,149.58c0,45.8-37.13,82.93-82.94,82.93s-82.94-37.13-82.94-82.93c0-17.08,5.16-32.94,14-46.13.75-1.12,1.52-2.22,2.33-3.3,15.11-20.33,39.32-33.51,66.61-33.51,38.15,0,70.29,25.76,79.95,60.83.27.95.52,1.9.74,2.86,1.47,6.18,2.25,12.62,2.25,19.25Z"/>
      <g>
        <g>
          <path class="cls-2" d="m220.77,135.04c-.14-.7-.29-1.39-.45-2.08-.33-.18-.68-.37-1.03-.55-3.18-1.63-7.17-3.27-11.34-4.8v-.44c2.36-3.72,4.17-6.57,6.52-10.29-3.38-6.7-7.77-12.8-12.96-18.11-5.2-5.31-11.21-9.82-17.82-13.34-4.82-2.58-9.96-4.62-15.35-6.05v112.97l13.94-23.94c.14-.55.3-1.1.49-1.64.19-.53.5-1.34.92-2.08v-29.92c6.02-1.33,15.56,2.31,23.64,6.32h.01c.43.21.87.43,1.29.65.96.48,1.89.97,2.78,1.45,6.23,3.35,10.82,6.39,10.82,6.39,0-4.98-.5-9.84-1.46-14.54Zm-31.43-13.49c-1.01-.3-1.92-.56-2.7-.77-1.85-.53-2.95-.82-2.95-.82v-17.75c3.12,2.25,6.01,4.79,8.62,7.61.44.46.86.94,1.28,1.42.42.48.84.97,1.24,1.47.1.1.18.21.27.32.1.13.2.26.29.39,2.75,4.07-1.17,9.56-6.05,8.13Z"/>
          <path class="cls-2" d="m160.13,77.7v129.63c-3.42.62-6.95.95-10.55.95-1.61,0-3.21-.07-4.79-.2V77.09c1.58-.11,3.18-.16,4.79-.16,3.58,0,7.11.26,10.55.77Z"/>
          <path class="cls-2" d="m121.24,82.67c-12.85,5.45-23.82,14.5-31.62,25.88-.55.79-1.08,1.6-1.59,2.42-7.03,11.19-11.1,24.43-11.1,38.61,0,25.46,13.1,47.86,32.93,60.83v-18.06c-6.81-6.32-12.1-14.25-15.28-23.19,9.02-10.47,16.78-15.42,21.56-17.7,1.07-.52,1.99-.89,2.74-1.18,1.52-.55,2.36-.7,2.36-.7v16.41l9.29,15.96,4.68,8.05,1.37,2.35v-114.26c-5.34.96-10.47,2.51-15.34,4.58Zm-7.51,55.39c-.89.46-1.78.93-2.64,1.41-10.31,5.71-18.62,12.94-19.75,13.94-.09-1.27-.13-2.54-.13-3.83,0-11.05,3.07-21.39,8.41-30.21.55-.9,1.12-1.78,1.72-2.65,5.1-7.5,11.93-13.76,19.9-18.19v36.24c-2.54.92-5.07,2.05-7.51,3.29Z"/>
        </g>
        <g>
          <path class="cls-2" d="m230.27,130.33c-3.43.85-6.58,2.64-9.45,4.68-.02.01-.03.02-.05.03-3.36,2.41-6.47,5.2-9.36,8.15-.12.11-.23.23-.34.34-2.73,2.82-5.27,5.83-7.56,9.03-2.23,3.11-4.27,6.46-7.44,8.72-1.44,1.03-3.14,1.8-4.89,2.09-.92.15-1.82.19-2.74.07-.87-.11-1.92-.68-2.77-.57-.8.1-1.47.91-1.98,1.82-.42.74-.73,1.55-.92,2.08-.19.54-.35,1.09-.49,1.64-.3,1.12-.52,2.25-.75,3.38-.76,3.65-1.91,6.88-4.17,9.89-2.3,3.07-4.93,5.83-6.99,9.09-2.04,3.23-3.66,6.71-4.69,10.39-.26.95-.49,1.91-.68,2.87-.14.75-.24,1.47-.73,2.09-.45.56-1.05.87-1.7,1.13-.23.09-.48.16-.7.27-.04.02-.07.04-.11.07h-.01c-.28.6-.94,1.03-1.61,1.09-.18.09-.37.18-.55.26-.56.27-1.13.51-1.71.74-1.08.43-2.19.78-3.33,1.02-2.2.44-4.54.52-6.66-.32-4.55-1.8-6.92-7.46-8.72-11.64-1.27-2.95-2.54-5.88-3.96-8.74-.77-1.56-1.6-3.11-2.49-4.62-.7-1.17-1.43-2.31-2.19-3.43-2.11-3.09-4.42-6.01-6.71-9.01-1.5-1.96-2.72-4.02-3.59-6.33-.89-2.39-1.39-4.91-1.94-7.4-.58-2.63-1.3-5.21-2.15-7.75-.77-2.33-1.66-4.62-2.65-6.88-.76-1.72-1.56-3.43-2.4-5.11-1.46-2.95-3.02-5.84-4.63-8.7-1.25-2.23-2.52-4.46-3.81-6.67-.94-1.62-1.89-3.24-3.03-4.73-.34-.45-.71-.89-1.09-1.31-2.67-2.94-6.8-4.85-10.5-7.09-3.22-1.95-6.1-4.15-7.39-7.52.75-1.12,1.52-2.22,2.33-3.3.3,3.84,3.44,6.45,6.65,8.4.8.49,1.61.94,2.38,1.36,2.32,1.25,4.65,2.49,6.7,4.17.97.79,1.84,1.68,2.64,2.64.78.96,1.5,1.97,2.17,3.01,2.65,4.09,4.98,8.44,7.31,12.72,1,1.85,1.98,3.72,2.91,5.61,1.28,2.58,2.47,5.2,3.56,7.87.58,1.44,1.11,2.89,1.59,4.35.93,2.78,1.7,5.59,2.36,8.46.09.39.18.79.27,1.18.51,2.34,1.04,4.74,2.05,6.94.99,2.19,2.45,4.1,3.95,5.96,3.03,3.76,5.84,7.64,8.25,11.82.28.49.55.97.82,1.47,2.02,3.73,3.65,7.6,5.34,11.5.85,1.94,1.75,3.87,2.87,5.67.08.13.16.25.24.38,1.07,1.65,2.31,3.42,4.27,4.05.33.1.66.18.99.23,1.09.18,2.21.09,3.31-.13.03,0,.05,0,.08-.01.38-.06.76-.15,1.13-.25,1-.27,1.99-.62,2.94-1.04.5-.22,1.01-.57,1.54-.81.24-.25.53-.47.84-.65.01,0,.01-.01.02-.01.48-.28,1.48-.38,1.82-.81.04-.05.1-.8.14-.99.11-.56.23-1.11.36-1.65.26-1.1.58-2.18.94-3.24,1.2-3.52,2.88-6.86,4.93-9.96.35-.54.72-1.07,1.1-1.59,2.32-3.19,5.28-5.97,7.18-9.45,1.77-3.24,1.93-7,2.97-10.48.66-2.23,1.96-5.17,4.1-6.39.81-.47,1.75-.69,2.82-.53,1.06.16,2.01.58,3.1.57.85-.01,1.68-.19,2.48-.48,1.84-.67,3.35-1.95,4.65-3.37,2.72-3,4.77-6.59,7.31-9.74,1.45-1.79,2.98-3.53,4.58-5.19,1.21-1.26,2.46-2.49,3.75-3.67,2.17-1.98,4.46-3.94,6.91-5.66,3.14-2.21,6.53-4.01,10.24-4.94.27.95.52,1.9.74,2.86Z"/>
          <path class="cls-2" d="m158.92,207.3s.01,0,.01.01v.02s0-.02-.01-.03Z"/>
          <path class="cls-2" d="m160.79,205.94h-.03s.02,0,.03,0Z"/>
        </g>
      </g>
      <g>
        <path class="cls-1" d="m286.27,149.58c0,31.37-10.56,60.27-28.33,83.33-9.17,11.91-27.47,10.75-34.98-2.27h-.01c-4.24-7.34-3.73-16.56,1.45-23.26,12.37-15.98,19.73-36.03,19.73-57.8,0-7.56-.89-14.9-2.57-21.94-.25-1.1-.53-2.18-.84-3.26-11.01-39.98-47.65-69.35-91.14-69.35-31.11,0-58.71,15.03-75.93,38.2-.93,1.23-1.8,2.49-2.66,3.76-10.08,15.04-15.96,33.12-15.96,52.59,0,23.21,8.36,44.47,22.24,60.92,5.78,6.85,6.78,16.53,2.3,24.29-4,6.94-11.12,10.54-18.28,10.54-5.89,0-11.81-2.43-16.06-7.45-20.17-23.83-32.34-54.64-32.34-88.3,0-28.15,8.5-54.29,23.07-76.02,1.24-1.85,2.51-3.66,3.84-5.44C64.7,34.61,104.6,12.89,149.58,12.89c62.87,0,115.84,42.46,131.77,100.25.44,1.57.85,3.14,1.22,4.72,2.42,10.18,3.7,20.8,3.7,31.72Z"/>
        <path class="cls-2" d="m149.58,13.95c-10.98,0-19.92,8.94-19.92,19.92s8.94,19.92,19.92,19.92,19.92-8.93,19.92-19.92-8.94-19.92-19.92-19.92Zm3,17.61l10.7-10.7c.91.96,1.71,2.01,2.4,3.13l-13.1,7.57Zm13.62-6.71c.62,1.15,1.12,2.37,1.5,3.64l-14.58,3.9,13.07-7.55Zm-14.29,5.96l7.54-13.05c1.12.69,2.17,1.49,3.12,2.39l-10.66,10.66Zm-.87-.49l3.9-14.59c1.28.38,2.5.88,3.65,1.51l-7.55,13.08Zm-.96-.27v-15.07c1.34.04,2.64.21,3.9.51l-3.9,14.56Zm-1,.05l-3.91-14.61c1.26-.3,2.57-.48,3.91-.51v15.13Zm-.97.23l-7.55-13.08c1.15-.63,2.37-1.13,3.65-1.51l3.9,14.59Zm-.86.5l-10.67-10.67c.95-.9,2-1.7,3.12-2.39l7.55,13.07Zm-.7.72l-13.08-7.55c.69-1.13,1.5-2.18,2.4-3.13l10.68,10.68Zm-.52.85l-14.58-3.9c.38-1.27.88-2.5,1.5-3.64l13.07,7.55Zm-.26.96h-15.08c.04-1.34.21-2.64.51-3.9l14.56,3.9Zm.04,1l-14.6,3.91c-.3-1.26-.48-2.57-.51-3.91h15.11Zm.23.98l-13.07,7.55c-.62-1.15-1.12-2.37-1.5-3.64l14.57-3.9Zm.5.87l-10.65,10.66c-.9-.95-1.71-2-2.4-3.13l13.05-7.54Zm.72.69l-7.55,13.07c-1.12-.69-2.17-1.49-3.12-2.39l10.67-10.68Zm.86.51l-3.91,14.59c-1.28-.38-2.5-.88-3.65-1.51l7.56-13.09Zm.97.24v15.12c-1.34-.04-2.65-.21-3.91-.51l3.91-14.6Zm1,.04l3.9,14.56c-1.26.3-2.56.48-3.9.51v-15.07Zm.96-.28l7.56,13.09c-1.15.63-2.37,1.13-3.65,1.51l-3.91-14.59Zm.85-.51l10.68,10.69c-.95.9-2,1.7-3.12,2.39l-7.56-13.08Zm.73-.68l13.05,7.54c-.69,1.12-1.49,2.17-2.4,3.13l-10.66-10.66Zm.5-.86l14.57,3.91c-.38,1.27-.88,2.5-1.5,3.64l-13.07-7.55Zm.22-.98h15.12c-.04,1.34-.21,2.65-.51,3.91l-14.6-3.91Zm.04-1l14.57-3.9c.3,1.26.48,2.56.51,3.9h-15.08Z"/>
        <g>
          <path class="cls-2" d="m30.45,175.12l1.29,4.18,15.26-4.73-.98,3.89-2.72.85c1.28.7,2.23,2.07,2.86,4.09.5,1.61.41,3.21-.28,4.79-.68,1.58-1.71,2.59-3.08,3.01-1.34.42-2.65.26-3.94-.46-1.28-.72-2.15-1.82-2.6-3.28-.64-2.06-.41-4.12.67-6.18l-4.18,1.29,3.69,11.91-2.4,2.54-6-19.36,2.4-2.54Zm12.12,6.99c-.52-.69-1.11-1.17-1.76-1.44-.66-.27-1.29-.32-1.91-.12s-1.04.67-1.25,1.44c-.22.77-.18,1.64.12,2.61.22.73.52,1.37.87,1.92l3.93-4.4Zm.81,1.34l-3.82,4.37c.53.57,1.11.93,1.73,1.11.62.17,1.28.15,1.98-.07.54-.17.94-.56,1.17-1.19.24-.62.25-1.28.03-1.97-.29-.92-.65-1.67-1.09-2.25Z"/>
          <path class="cls-2" d="m28.17,158.03l.58,3.99,4.52-.66.99,6.77c.05.33.2.61.47.85.27.24.55.34.85.3.51-.08.91-.45,1.18-1.13-.66-.98-1.05-1.95-1.19-2.9-.17-1.17.22-2.42,1.16-3.75.95-1.33,2-2.09,3.15-2.25.69-.1,1.39.05,2.1.46.71.41,1.34,1.02,1.88,1.84l-1.98,2.21c-.41-.62-.95-1.09-1.62-1.43-.67-.33-1.37-.44-2.1-.34-.63.09-.9.39-.83.89.23,1.58.85,2.85,1.85,3.82,1,.97,2.1,1.37,3.3,1.19,1.07-.16,1.92-1,2.57-2.54.65-1.54,1.01-3.3,1.09-5.3h1.34c-.09,2.87-.67,5.33-1.73,7.39-1.06,2.06-2.33,3.19-3.81,3.41-.83.12-1.63.05-2.4-.22-.78-.27-1.39-.69-1.85-1.28-.58,1.75-1.59,2.73-3.03,2.94-.73.11-1.36-.11-1.9-.64-.54-.54-.87-1.22-.99-2.05l-.65-4.48-1.88.27,1.37,9.37-2.76,2.13-2.44-16.74,2.76-2.13Z"/>
          <path class="cls-2" d="m47.37,173.19l-.83-.89c1.45-1.19,2.56-2.6,3.32-4.22.76-1.63,1.08-3.25.96-4.87-.08-1.12-.5-2.08-1.24-2.85-.74-.78-1.63-1.13-2.67-1.05-.28.02-.5.16-.66.42s-.22.59-.19.98c.06.82.69,1.6,1.89,2.34l-1.92,2.43c-1.22-1.05-1.88-2.15-1.96-3.29-.08-1.05.37-2.14,1.35-3.27.98-1.13,1.99-1.74,3.04-1.82,1.2-.09,2.27.36,3.2,1.34.93.98,1.45,2.2,1.56,3.65.14,1.86-.32,3.78-1.37,5.75-1.05,1.98-2.54,3.76-4.48,5.36Z"/>
          <path class="cls-2" d="m34.45,142.27l-.12,4.75c.79-.61,1.55-1.07,2.29-1.37.74-.3,1.45-.44,2.13-.42.78.02,1.45.31,1.99.88.54.56.8,1.25.79,2.04-.04,1.58-.94,3.17-2.7,4.75-1.76,1.58-3.98,2.96-6.66,4.14l-.54-1.15c1.78-.77,3.23-1.69,4.34-2.78,1.11-1.09,1.68-2.14,1.71-3.15.01-.42-.12-.78-.4-1.08-.28-.3-.64-.46-1.08-.47-.91-.02-1.76.18-2.54.6-.79.42-1.5,1.07-2.16,1.94l-.67-.59.21-8.17-2.66-.07-.39,15.43-3.08,1.63.59-23.23,3.08-1.63-.11,4.37,15.97.4-1.99,3.37-7.98-.2Z"/>
          <path class="cls-2" d="m32.47,116.46l-.86,4.29,15.66,3.14-2.54,2.98-5.97-1.2-.82,4.1c-.04.21.01.41.16.59.15.18.36.29.62.35l1.31.26c.5.1.7.4.6.9-.14.7-.8,1.33-2,1.89-1.19.56-2.24.75-3.15.57-.41-.08-.73-.29-.97-.63-.24-.34-.31-.72-.22-1.16l1.49-7.46-4.85-.97-1.96,9.81-3.32,1.08,3.5-17.45,3.32-1.08Z"/>
          <path class="cls-2" d="m38.27,100.4l-1.34,3.8,4.3,1.52-2.28,6.45c-.11.31-.1.64.02.97.12.34.33.56.61.66.49.17,1.01.02,1.57-.45-.12-1.17-.02-2.21.3-3.12.39-1.11,1.32-2.04,2.78-2.78,1.46-.74,2.74-.92,3.84-.53.66.23,1.21.7,1.65,1.39.44.69.71,1.53.81,2.5l-2.79,1.03c-.07-.74-.33-1.41-.77-2.02-.44-.61-1-1.03-1.7-1.28-.6-.21-.98-.08-1.15.4-.53,1.5-.58,2.92-.15,4.24.43,1.32,1.22,2.19,2.37,2.59,1.02.36,2.17.01,3.46-1.05,1.29-1.06,2.43-2.45,3.44-4.18l1.19.62c-1.42,2.5-3.08,4.41-4.97,5.73-1.89,1.33-3.55,1.74-4.96,1.24-.79-.28-1.46-.72-2.03-1.31-.56-.59-.91-1.26-1.04-1.99-1.33,1.28-2.68,1.67-4.05,1.19-.69-.25-1.15-.73-1.38-1.46-.23-.73-.2-1.48.08-2.27l1.51-4.27-1.79-.63-3.16,8.93-3.44.6,5.65-15.95,3.44-.6Z"/>
          <path class="cls-2" d="m43.08,91.07l-1.91,3.93,14.37,6.98-3.57,2.09-12.3-5.97-1.22,2.51-3.47.22,2.26-4.65c-.78.28-1.62.43-2.5.45-.88.02-1.62-.12-2.21-.41-1.29-.63-2.12-1.7-2.49-3.22-.37-1.52-.2-3.01.52-4.48.96-1.98,2.6-3.73,4.91-5.24,2.31-1.51,5.12-2.68,8.43-3.52l.19.96c-2.62.93-4.78,2.01-6.48,3.27s-2.94,2.67-3.7,4.26c-.58,1.2-.76,2.32-.52,3.38.23,1.06.77,1.79,1.61,2.2,1.08.53,2.11.74,3.08.63l1.53-3.15,3.47-.24Z"/>
          <path class="cls-2" d="m52.91,75.52l-2.37,3.68,13.43,8.64-3.77,1.64-6.71-4.32-1.85,2.88c-.46.71-.6,1.48-.41,2.3s.63,1.46,1.32,1.9c.83.54,1.82.85,2.97.94,1.15.09,2.31-.05,3.47-.41l.34,1.58c-2.03.44-3.96.58-5.78.42-1.82-.16-3.31-.62-4.46-1.36-.86-.56-1.38-1.39-1.56-2.51s.06-2.19.73-3.23l2.68-4.16-2.24-1.44-5.8,9.02-3.48-.21,10.02-15.57,3.48.21Z"/>
          <path class="cls-2" d="m59.89,67.61l-2.79,3.37,12.3,10.19-3.94,1.18-10.54-8.73-1.79,2.17-3.44-.62,6.77-8.17,3.43.62Z"/>
          <path class="cls-2" d="m75.72,66.86c-.11,1.7-.71,3.06-1.8,4.09-1.12,1.05-2.72,1.46-4.81,1.23-2.09-.23-4.12-.95-6.08-2.17,1.09-1.02,1.76-1.95,2.01-2.77.25-.83.08-1.55-.51-2.18-.38-.41-.9-.62-1.54-.64l-3.3,3.1-3.33-1.05,14.67-13.76,3.33,1.05-3.33,3.12,10.93,11.65-3.93.82-2.32-2.47Zm-7.18-7.65l-4.3,4.03c1.8.17,3.08.67,3.85,1.49.53.56.7,1.36.5,2.4-.19,1.03-.75,2.04-1.67,3.03.82.24,1.56.3,2.24.17.68-.13,1.28-.45,1.82-.95,1.39-1.3,2.03-3.14,1.92-5.51l-4.37-4.66Z"/>
        </g>
        <g>
          <path class="cls-2" d="m238.04,65.79l-3.28-2.89-10.57,11.97-1.18-3.83,1.89-2.14c-1.46.06-2.98-.6-4.57-2-1.26-1.12-2.02-2.53-2.26-4.24-.24-1.71.11-3.1,1.06-4.18.93-1.05,2.13-1.61,3.6-1.65,1.47-.05,2.78.44,3.93,1.45,1.62,1.43,2.5,3.3,2.64,5.63l2.89-3.28-9.35-8.25.73-3.41,15.2,13.41-.73,3.41Zm-15.38-.39l.99-5.72c-.75-.2-1.43-.22-2.05-.05-.62.17-1.17.54-1.66,1.09-.38.43-.51.97-.38,1.63.12.66.45,1.22.99,1.7.72.64,1.42,1.09,2.1,1.35Zm1.39.72c.8.32,1.55.42,2.26.32.7-.11,1.27-.4,1.7-.89.43-.48.53-1.11.32-1.89-.21-.77-.7-1.49-1.46-2.17-.57-.5-1.15-.9-1.74-1.18l-1.07,5.8Z"/>
          <path class="cls-2" d="m248.86,79.17l-2.57-3.1-3.51,2.91-4.37-5.27c-.21-.25-.49-.41-.85-.48-.35-.07-.65,0-.88.19-.4.33-.54.86-.42,1.58,1.07.5,1.91,1.11,2.53,1.86.75.91,1.07,2.18.96,3.81-.11,1.63-.62,2.82-1.51,3.56-.54.44-1.22.68-2.04.7-.82.02-1.68-.17-2.56-.59l.54-2.92c.67.31,1.38.44,2.12.38.74-.07,1.4-.33,1.97-.8.49-.4.57-.8.25-1.19-1.02-1.23-2.21-2-3.56-2.31-1.36-.31-2.51-.07-3.44.7-.83.69-1.12,1.86-.87,3.5s.85,3.34,1.83,5.09l-1.15.7c-1.41-2.5-2.2-4.9-2.37-7.21-.17-2.31.33-3.94,1.48-4.89.64-.53,1.37-.89,2.17-1.07.8-.18,1.55-.13,2.24.13-.42-1.79-.06-3.16,1.06-4.09.57-.47,1.22-.62,1.96-.44.74.18,1.38.59,1.91,1.23l2.89,3.48,1.46-1.21-6.04-7.29,1.25-3.26,10.8,13.03-1.25,3.26Z"/>
          <path class="cls-2" d="m224.6,76.24l1.17.33c-.62,1.77-.83,3.55-.64,5.33.19,1.79.76,3.34,1.71,4.66.66.92,1.5,1.51,2.54,1.79,1.04.28,1.98.11,2.83-.49.23-.16.34-.4.34-.7,0-.3-.11-.62-.34-.93-.48-.67-1.42-1.01-2.83-1.01l.37-3.07c1.59.26,2.72.86,3.38,1.79.61.86.8,2.02.55,3.5-.24,1.48-.79,2.52-1.65,3.13-.98.7-2.12.88-3.43.52-1.3-.35-2.38-1.12-3.23-2.31-1.08-1.52-1.69-3.39-1.83-5.62-.13-2.24.21-4.54,1.04-6.91Z"/>
          <path class="cls-2" d="m251.7,95.92l-2.37-4.12c-.35.94-.77,1.72-1.24,2.36-.47.64-1.01,1.13-1.6,1.47-.68.39-1.4.49-2.16.29-.76-.2-1.34-.65-1.74-1.34-.79-1.37-.85-3.19-.17-5.46.68-2.27,1.85-4.6,3.53-7l1.06.71c-1.12,1.58-1.88,3.12-2.26,4.63-.38,1.51-.32,2.7.18,3.58.21.36.51.6.91.72.4.12.79.06,1.17-.16.79-.45,1.41-1.07,1.86-1.84.45-.77.73-1.7.83-2.78l.88.15,4.08,7.09,2.31-1.33-7.7-13.38,1.78-3,11.58,20.14-1.78,3-2.18-3.79-13.84,7.96-.06-3.92,6.92-3.98Z"/>
          <path class="cls-2" d="m266.83,116.95l-1.5-4.11-15.01,5.46.62-3.87,5.72-2.08-1.43-3.93c-.07-.2-.22-.34-.44-.41-.22-.08-.46-.07-.71.02l-1.25.46c-.48.17-.8.02-.98-.45-.24-.67,0-1.55.72-2.65.73-1.1,1.52-1.81,2.39-2.12.39-.14.78-.13,1.16.03.38.17.64.46.79.88l2.6,7.15,4.65-1.69-3.42-9.4,2.27-2.65,6.08,16.72-2.27,2.65Z"/>
          <path class="cls-2" d="m261.89,132.67c-1.08-.93-1.73-2.02-1.96-3.27-.16-.85.21-2,1.1-3.45-.8,0-1.47-.19-2.02-.55-.54-.36-.96-.9-1.25-1.62l-4.27,6.13-1.37-1.14,4.04-5.28c.83-1.08,1.67-2.02,2.51-2.81s1.68-1.26,2.5-1.41c.37-.07.71.02,1.02.27.3.25.49.58.57.98.04.24-.06.71-.32,1.41.07.37.35.51.85.42l4.49-.83-.79-4.22,2.68-2.24,4.03,21.61-2.68,2.24-.8-4.3-15.7,2.93,1.62-3.78,5.76-1.07Zm7.7-1.44l-1.19-6.36-5.98,1.12c-.26.8-.32,1.59-.17,2.39.23,1.23,1.28,2.44,3.15,3.63l4.19-.78Z"/>
          <path class="cls-2" d="m251.37,124.33l.84.88c-1.43,1.21-2.51,2.64-3.25,4.28-.73,1.64-1.03,3.27-.88,4.88.1,1.12.53,2.07,1.29,2.83s1.65,1.1,2.69,1c.28-.02.49-.17.65-.43.15-.26.21-.59.18-.98-.08-.82-.72-1.59-1.93-2.31l1.88-2.46c1.24,1.03,1.91,2.12,2.02,3.25.1,1.05-.33,2.15-1.29,3.3-.96,1.15-1.96,1.77-3.01,1.87-1.2.11-2.27-.32-3.22-1.28-.95-.96-1.49-2.17-1.62-3.62-.17-1.86.25-3.78,1.27-5.78,1.01-2,2.48-3.81,4.39-5.43Z"/>
          <path class="cls-2" d="m258.53,159.61c-1.3-1.38-2.3-2.73-2.98-4.04s-1.01-2.48-.98-3.49c.06-2.03,1.56-4.49,4.51-7.38,2.95-2.9,4.98-4.33,6.1-4.29.34.01.65.11.91.31.27.2.4.42.39.68-.02.67-.36,1.36-1.01,2.06.18.26.81.4,1.89.44l3.8.11.12-4.18,3.09-1.62-.81,27.94-3.09,1.62.13-4.37-15.96-.46,2.19-3.36,1.71.05Zm3.04.09c-1.08-2.01-1.61-3.42-1.59-4.23.04-1.56.59-2.88,1.63-3.98,1.04-1.09,2.26-1.62,3.67-1.58,1.22.04,2.2.55,2.96,1.55.76,1,1.12,2.17,1.08,3.51-.04,1.52-.98,3.14-2.8,4.86l4.18.12.36-12.54-5.32-.15c-1.84-.05-3.15-.79-3.93-2.21-1.34.89-2.43,1.89-3.26,3-.83,1.11-1.26,2.16-1.29,3.15-.04,1.48.18,2.97.66,4.46.48,1.49,1.2,2.82,2.14,3.99l1.52.04Zm3.42.29c1.17-.82,1.78-2.26,1.84-4.32.02-.82-.24-1.54-.78-2.16s-1.21-.94-1.98-.96c-.34,0-.65.15-.94.48-.28.33-.43.72-.44,1.19-.05,1.79.72,3.71,2.31,5.77Z"/>
          <path class="cls-2" d="m267.6,178.44l.83-4.29-15.68-3.04,2.89-2.92,13.44,2.6.54-2.76,3.31-1.1-2.02,10.42-3.31,1.1Z"/>
          <path class="cls-2" d="m254.06,186.72c-.72-1.54-.85-3.03-.38-4.45.48-1.46,1.69-2.59,3.63-3.39s4.07-1.14,6.37-1.01c-.47,1.42-.61,2.55-.43,3.4.18.84.67,1.4,1.49,1.67.53.17,1.08.12,1.66-.18l1.41-4.3,3.42-.68-6.27,19.11-3.42.68,1.42-4.34-15.18-4.98,3.05-2.6,3.22,1.06Zm9.97,3.27l1.84-5.6c-1.66.71-3.03.89-4.1.54-.73-.24-1.26-.86-1.59-1.86-.33-1-.32-2.15.01-3.46-.83.18-1.52.49-2.05.93-.53.44-.91,1.01-1.14,1.71-.59,1.81-.27,3.73.95,5.76l6.07,1.99Z"/>
        </g>
      </g>
      <g>
        <path class="cls-1" d="m94.08,272.11h-6.83v22.58h-5.27v-22.58h-6.02v22.58h-5.29v-11.66h-5.43c.46.58.8,1.24,1.02,1.98.22.74.33,1.46.33,2.16,0,1.18-.23,2.28-.68,3.29-.45,1.01-1.07,1.89-1.86,2.62s-1.72,1.31-2.8,1.74c-1.08.42-2.24.63-3.49.63-1.07,0-2.09-.13-3.07-.4-.98-.26-1.9-.67-2.76-1.21-.86-.54-1.66-1.23-2.39-2.06-.74-.83-1.39-1.81-1.96-2.93l4.29-2.08c1.71,2.55,3.66,3.83,5.85,3.83.47,0,.93-.09,1.38-.27.45-.18.85-.42,1.21-.72.35-.3.64-.65.85-1.05.21-.4.32-.83.32-1.29,0-.71-.12-1.34-.35-1.89-.24-.55-.57-1.02-1.01-1.39s-.96-.66-1.57-.85c-.61-.19-1.29-.29-2.04-.29-.26,0-.6.02-1.02.07-.42.05-.94.13-1.56.24v-5.16c.42.07.76.12,1.04.15.28.03.52.04.73.04.64,0,1.25-.09,1.83-.28.58-.19,1.1-.45,1.54-.78.44-.33.8-.74,1.06-1.21s.4-1,.4-1.58c0-.43-.08-.83-.24-1.2-.16-.37-.37-.69-.65-.97-.27-.28-.58-.5-.93-.66-.35-.16-.72-.24-1.1-.24-.68,0-1.46.13-2.33.38-.87.26-1.85.65-2.94,1.18l-1.44-4.41c2.59-1.33,4.86-2,6.81-2,2.26,0,4.14.69,5.64,2.08,1.61,1.46,2.41,3.3,2.41,5.52,0,1.51-.45,2.89-1.35,4.12h6.24v-6.04h-3.37v-4.89h26.77v4.89Z"/>
        <path class="cls-1" d="m127.42,267.22v4.89h-15.88v5.7c.69-.44,1.38-.76,2.05-.96.67-.19,1.41-.29,2.22-.29,1.08,0,2.06.18,2.93.54.87.36,1.62.87,2.24,1.52.62.65,1.09,1.44,1.42,2.36.33.92.49,1.95.49,3.09,0,.72-.11,1.47-.32,2.24-.22.77-.51,1.54-.87,2.3-.37.76-.79,1.5-1.28,2.21-.49.71-1,1.35-1.54,1.94l-3.27-4.06c.28-.29.56-.64.83-1.05.28-.41.52-.83.74-1.26s.39-.85.53-1.27.21-.78.21-1.1c0-.49-.08-.89-.24-1.23-.16-.33-.36-.6-.6-.81-.24-.21-.5-.36-.76-.45-.26-.09-.5-.13-.71-.13-.39,0-.75.06-1.09.18s-.67.28-.99.5c-.32.21-.64.47-.97.77-.33.3-.66.62-1.01.97v10.89h-5.29v-7.35c-.67.36-1.42.69-2.27.99-.85.3-1.7.45-2.56.45-1.42,0-2.61-.22-3.59-.67-.98-.44-1.77-1.01-2.36-1.7-.6-.69-1.03-1.45-1.29-2.28-.26-.83-.4-1.64-.4-2.44,0-1.03.19-1.97.58-2.82.39-.85.93-1.59,1.62-2.21s1.53-1.1,2.5-1.45c.97-.35,2.04-.52,3.21-.52.97,0,1.83.1,2.59.3s1.41.42,1.97.66v-3.56h-13.63v-4.89h34.8Zm-21.17,13.78c-.24-.12-.51-.27-.82-.43-.31-.16-.66-.31-1.04-.45-.38-.14-.8-.26-1.25-.35-.45-.1-.93-.15-1.45-.15-1.79,0-2.69.62-2.69,1.85,0,.79.22,1.38.67,1.78.44.4,1.03.59,1.75.59.39,0,.8-.08,1.24-.24s.87-.35,1.3-.58.84-.48,1.24-.75.75-.52,1.05-.76v-.52Z"/>
        <path class="cls-1" d="m138.54,272.11h-4.89v22.58h-5.29v-22.58h-2.39v-4.89h12.57v4.89Z"/>
        <path class="cls-1" d="m154.59,276.06c0,1.12-.11,2.21-.32,3.26-.22,1.05-.56,2.02-1.02,2.91s-1.06,1.69-1.79,2.39c-.73.7-1.61,1.27-2.63,1.7l5.81,6.37-3.89,3.58-12.51-13.61,3.89-3.62,2.87,3.14c.53-.03,1.03-.16,1.5-.39.47-.23.9-.55,1.29-.96.39-.41.72-.89,1-1.45.28-.56.48-1.17.6-1.83-.6.43-1.26.76-2,1-.74.24-1.5.35-2.29.35-1.05,0-1.97-.15-2.76-.46-.78-.3-1.44-.72-1.97-1.26-.53-.53-.92-1.15-1.19-1.85-.26-.7-.4-1.45-.4-2.24,0-.94.19-1.81.56-2.61.37-.8.88-1.49,1.53-2.07.65-.58,1.4-1.04,2.27-1.36.87-.33,1.8-.49,2.8-.49,1.35,0,2.55.23,3.62.68,1.07.45,1.97,1.09,2.72,1.93.74.83,1.31,1.83,1.71,3,.4,1.17.59,2.46.59,3.89Zm-9.1-1.96c.19,0,.4-.02.6-.06.21-.04.42-.12.62-.23.21-.11.42-.27.62-.48.21-.21.42-.47.62-.79-.31-.3-.63-.55-.97-.73-.34-.18-.69-.27-1.05-.27-.61,0-1.11.14-1.49.42-.38.28-.57.66-.57,1.14,0,.29.16.53.49.72.33.19.7.28,1.11.28Zm24.15-2h-6.18v22.58h-5.29v-22.58h-2.29v-4.89h13.76v4.89Z"/>
        <path class="cls-1" d="m195.2,272.11h-6.06v22.58h-5.29v-4.91c-.92.49-1.84.82-2.77,1s-1.87.27-2.83.27c-1.17,0-2.26-.22-3.28-.67s-1.91-1.05-2.66-1.81c-.76-.76-1.35-1.66-1.78-2.68s-.65-2.12-.65-3.29.23-2.31.7-3.31c.46-1,1.11-1.86,1.94-2.58s1.8-1.28,2.94-1.68c1.13-.4,2.36-.59,3.69-.59.99,0,1.87.09,2.64.27.78.18,1.46.39,2.06.62v-3.23h-15.67v-4.89h27.02v4.89Zm-11.34,8.26c-.32-.15-.67-.3-1.05-.46-.38-.15-.77-.29-1.18-.42-.4-.12-.81-.23-1.21-.3s-.78-.11-1.14-.11c-.68,0-1.26.06-1.75.19-.49.12-.89.29-1.22.5-.33.21-.59.45-.78.72-.19.27-.34.54-.45.81s-.17.53-.2.79c-.03.26-.04.48-.04.68,0,.5.1.96.29,1.39.19.43.46.8.79,1.12s.73.57,1.19.75.95.27,1.48.27c.64,0,1.24-.08,1.8-.25.56-.17,1.07-.36,1.52-.59.45-.23.84-.47,1.17-.73.33-.26.59-.48.78-.66v-3.71Z"/>
        <path class="cls-1" d="m206.31,272.11h-4.89v22.58h-5.29v-22.58h-2.39v-4.89h12.57v4.89Z"/>
        <path class="cls-1" d="m240.45,272.11h-6.77v22.58h-5.27v-22.58h-4.64v8.49c0,1.19-.2,2.27-.6,3.24-.4.96-.97,1.79-1.71,2.47-.74.68-1.62,1.2-2.65,1.57-1.03.37-2.18.55-3.44.55-1.1,0-2.13-.21-3.11-.63-.98-.42-1.84-.99-2.58-1.71-.74-.71-1.33-1.54-1.77-2.49-.44-.94-.66-1.94-.66-3v-8.49h-2.39v-4.89h35.59v4.89Zm-21.96,0h-5.95v8.49c0,.36.09.69.28,1,.19.31.42.57.71.8.28.23.6.41.94.54.34.13.67.2.99.2.76,0,1.47-.24,2.12-.73.61-.49.92-1.09.92-1.81v-8.49Z"/>
        <path class="cls-1" d="m251.56,272.11h-4.87v22.58h-5.29v-22.58h-2.41v-4.89h1.96c-.32-.47-.67-.96-1.04-1.47-.38-.51-.75-.99-1.13-1.46-.38-.46-.76-.91-1.12-1.32-.37-.42-.71-.78-1.04-1.09s-.62-.56-.88-.74c-.26-.18-.48-.27-.65-.27-.58,0-1.06.13-1.45.4s-.57.64-.57,1.12c0,.54.96,2.27,2.87,5.18l-3.85,2.48c-2.48-3.57-3.73-6.22-3.73-7.97,0-.89.15-1.7.45-2.45s.73-1.38,1.28-1.93c.56-.54,1.23-.96,2.02-1.26.79-.3,1.68-.45,2.66-.45.57,0,1.1.09,1.6.26s.99.43,1.48.76c.49.33.98.74,1.47,1.21.49.47,1.01,1.01,1.55,1.6.15.17.36.41.63.73s.58.68.92,1.09c.34.41.7.85,1.08,1.33.38.48.76.96,1.13,1.45.37.49.74.97,1.08,1.45.35.48.65.93.92,1.34h4.93v4.89Z"/>
      </g>
    </g>
  </g>
</svg>